<mxfile host="Electron" agent="Mozilla/5.0 (Windows NT 10.0; Win64; x64) AppleWebKit/537.36 (KHTML, like Gecko) draw.io/25.0.2 Chrome/128.0.6613.186 Electron/32.2.5 Safari/537.36" version="25.0.2">
  <diagram name="Page-1" id="ebM1lFcQeWl0AWR6N2eY">
    <mxGraphModel dx="1290" dy="631" grid="1" gridSize="10" guides="1" tooltips="1" connect="1" arrows="1" fold="1" page="1" pageScale="1" pageWidth="827" pageHeight="1169" math="0" shadow="0">
      <root>
        <mxCell id="0" />
        <mxCell id="1" parent="0" />
        <mxCell id="VElCjOweHLXGrgQGBuoo-5" value="" style="edgeStyle=orthogonalEdgeStyle;rounded=0;orthogonalLoop=1;jettySize=auto;html=1;" parent="1" source="VElCjOweHLXGrgQGBuoo-1" target="VElCjOweHLXGrgQGBuoo-4" edge="1">
          <mxGeometry relative="1" as="geometry" />
        </mxCell>
        <mxCell id="VElCjOweHLXGrgQGBuoo-1" value="机械装置" style="rounded=0;whiteSpace=wrap;html=1;" parent="1" vertex="1">
          <mxGeometry x="110" y="290" width="120" height="60" as="geometry" />
        </mxCell>
        <mxCell id="VElCjOweHLXGrgQGBuoo-2" value="Wolfgang von Kempelen" style="rounded=0;whiteSpace=wrap;html=1;" parent="1" vertex="1">
          <mxGeometry x="40" y="390" width="120" height="60" as="geometry" />
        </mxCell>
        <mxCell id="VElCjOweHLXGrgQGBuoo-12" value="" style="edgeStyle=orthogonalEdgeStyle;rounded=0;orthogonalLoop=1;jettySize=auto;html=1;" parent="1" source="VElCjOweHLXGrgQGBuoo-4" target="VElCjOweHLXGrgQGBuoo-11" edge="1">
          <mxGeometry relative="1" as="geometry" />
        </mxCell>
        <mxCell id="VElCjOweHLXGrgQGBuoo-42" value="" style="edgeStyle=orthogonalEdgeStyle;rounded=0;orthogonalLoop=1;jettySize=auto;html=1;" parent="1" source="VElCjOweHLXGrgQGBuoo-4" target="VElCjOweHLXGrgQGBuoo-41" edge="1">
          <mxGeometry relative="1" as="geometry" />
        </mxCell>
        <mxCell id="VElCjOweHLXGrgQGBuoo-4" value="电子合成器" style="rounded=0;whiteSpace=wrap;html=1;" parent="1" vertex="1">
          <mxGeometry x="380" y="290" width="120" height="60" as="geometry" />
        </mxCell>
        <mxCell id="VElCjOweHLXGrgQGBuoo-6" value="Kratzenstein" style="rounded=0;whiteSpace=wrap;html=1;" parent="1" vertex="1">
          <mxGeometry x="180" y="390" width="120" height="60" as="geometry" />
        </mxCell>
        <mxCell id="VElCjOweHLXGrgQGBuoo-8" value="VODER" style="rounded=0;whiteSpace=wrap;html=1;" parent="1" vertex="1">
          <mxGeometry x="380" y="390" width="120" height="60" as="geometry" />
        </mxCell>
        <mxCell id="VElCjOweHLXGrgQGBuoo-14" value="" style="edgeStyle=orthogonalEdgeStyle;rounded=0;orthogonalLoop=1;jettySize=auto;html=1;" parent="1" source="VElCjOweHLXGrgQGBuoo-11" target="VElCjOweHLXGrgQGBuoo-13" edge="1">
          <mxGeometry relative="1" as="geometry" />
        </mxCell>
        <mxCell id="VElCjOweHLXGrgQGBuoo-16" value="" style="edgeStyle=orthogonalEdgeStyle;rounded=0;orthogonalLoop=1;jettySize=auto;html=1;" parent="1" source="VElCjOweHLXGrgQGBuoo-11" target="VElCjOweHLXGrgQGBuoo-15" edge="1">
          <mxGeometry relative="1" as="geometry" />
        </mxCell>
        <mxCell id="VElCjOweHLXGrgQGBuoo-11" value="共振峰合成" style="rounded=0;whiteSpace=wrap;html=1;" parent="1" vertex="1">
          <mxGeometry x="660" y="290" width="120" height="60" as="geometry" />
        </mxCell>
        <mxCell id="VElCjOweHLXGrgQGBuoo-18" value="" style="edgeStyle=orthogonalEdgeStyle;rounded=0;orthogonalLoop=1;jettySize=auto;html=1;" parent="1" source="VElCjOweHLXGrgQGBuoo-13" target="VElCjOweHLXGrgQGBuoo-17" edge="1">
          <mxGeometry relative="1" as="geometry" />
        </mxCell>
        <mxCell id="VElCjOweHLXGrgQGBuoo-19" value="" style="edgeStyle=orthogonalEdgeStyle;rounded=0;orthogonalLoop=1;jettySize=auto;html=1;" parent="1" source="VElCjOweHLXGrgQGBuoo-13" target="VElCjOweHLXGrgQGBuoo-17" edge="1">
          <mxGeometry relative="1" as="geometry" />
        </mxCell>
        <mxCell id="VElCjOweHLXGrgQGBuoo-20" value="" style="edgeStyle=orthogonalEdgeStyle;rounded=0;orthogonalLoop=1;jettySize=auto;html=1;" parent="1" source="VElCjOweHLXGrgQGBuoo-13" target="VElCjOweHLXGrgQGBuoo-17" edge="1">
          <mxGeometry relative="1" as="geometry" />
        </mxCell>
        <mxCell id="VElCjOweHLXGrgQGBuoo-22" value="" style="edgeStyle=orthogonalEdgeStyle;rounded=0;orthogonalLoop=1;jettySize=auto;html=1;" parent="1" source="VElCjOweHLXGrgQGBuoo-13" target="VElCjOweHLXGrgQGBuoo-17" edge="1">
          <mxGeometry relative="1" as="geometry" />
        </mxCell>
        <mxCell id="VElCjOweHLXGrgQGBuoo-23" value="" style="edgeStyle=orthogonalEdgeStyle;rounded=0;orthogonalLoop=1;jettySize=auto;html=1;" parent="1" source="VElCjOweHLXGrgQGBuoo-13" target="VElCjOweHLXGrgQGBuoo-17" edge="1">
          <mxGeometry relative="1" as="geometry" />
        </mxCell>
        <mxCell id="VElCjOweHLXGrgQGBuoo-28" value="" style="edgeStyle=orthogonalEdgeStyle;rounded=0;orthogonalLoop=1;jettySize=auto;html=1;" parent="1" source="VElCjOweHLXGrgQGBuoo-13" target="VElCjOweHLXGrgQGBuoo-27" edge="1">
          <mxGeometry relative="1" as="geometry" />
        </mxCell>
        <mxCell id="VElCjOweHLXGrgQGBuoo-32" value="" style="edgeStyle=orthogonalEdgeStyle;rounded=0;orthogonalLoop=1;jettySize=auto;html=1;" parent="1" source="VElCjOweHLXGrgQGBuoo-13" target="VElCjOweHLXGrgQGBuoo-31" edge="1">
          <mxGeometry relative="1" as="geometry" />
        </mxCell>
        <mxCell id="VElCjOweHLXGrgQGBuoo-13" value="波形拼接合成" style="rounded=0;whiteSpace=wrap;html=1;" parent="1" vertex="1">
          <mxGeometry x="940" y="290" width="120" height="60" as="geometry" />
        </mxCell>
        <mxCell id="VElCjOweHLXGrgQGBuoo-15" value="KLATT" style="rounded=0;whiteSpace=wrap;html=1;" parent="1" vertex="1">
          <mxGeometry x="660" y="390" width="120" height="60" as="geometry" />
        </mxCell>
        <mxCell id="VElCjOweHLXGrgQGBuoo-30" value="" style="edgeStyle=orthogonalEdgeStyle;rounded=0;orthogonalLoop=1;jettySize=auto;html=1;" parent="1" source="VElCjOweHLXGrgQGBuoo-17" target="VElCjOweHLXGrgQGBuoo-29" edge="1">
          <mxGeometry relative="1" as="geometry" />
        </mxCell>
        <mxCell id="VElCjOweHLXGrgQGBuoo-17" value="Diphone" style="rounded=0;whiteSpace=wrap;html=1;" parent="1" vertex="1">
          <mxGeometry x="870" y="390" width="120" height="60" as="geometry" />
        </mxCell>
        <mxCell id="VElCjOweHLXGrgQGBuoo-27" value="Unit Selection" style="rounded=0;whiteSpace=wrap;html=1;" parent="1" vertex="1">
          <mxGeometry x="1010" y="390" width="120" height="60" as="geometry" />
        </mxCell>
        <mxCell id="VElCjOweHLXGrgQGBuoo-29" value="TD-PSOLA" style="rounded=0;whiteSpace=wrap;html=1;" parent="1" vertex="1">
          <mxGeometry x="870" y="490" width="120" height="60" as="geometry" />
        </mxCell>
        <mxCell id="VElCjOweHLXGrgQGBuoo-34" value="" style="edgeStyle=orthogonalEdgeStyle;rounded=0;orthogonalLoop=1;jettySize=auto;html=1;" parent="1" source="VElCjOweHLXGrgQGBuoo-31" target="VElCjOweHLXGrgQGBuoo-33" edge="1">
          <mxGeometry relative="1" as="geometry" />
        </mxCell>
        <mxCell id="VElCjOweHLXGrgQGBuoo-36" value="" style="edgeStyle=orthogonalEdgeStyle;rounded=0;orthogonalLoop=1;jettySize=auto;html=1;" parent="1" source="VElCjOweHLXGrgQGBuoo-31" target="VElCjOweHLXGrgQGBuoo-35" edge="1">
          <mxGeometry relative="1" as="geometry" />
        </mxCell>
        <mxCell id="VElCjOweHLXGrgQGBuoo-38" value="" style="edgeStyle=orthogonalEdgeStyle;rounded=0;orthogonalLoop=1;jettySize=auto;html=1;" parent="1" source="VElCjOweHLXGrgQGBuoo-31" target="VElCjOweHLXGrgQGBuoo-37" edge="1">
          <mxGeometry relative="1" as="geometry" />
        </mxCell>
        <mxCell id="VElCjOweHLXGrgQGBuoo-31" value="统计参数合成" style="rounded=0;whiteSpace=wrap;html=1;" parent="1" vertex="1">
          <mxGeometry x="1220" y="290" width="120" height="60" as="geometry" />
        </mxCell>
        <mxCell id="VElCjOweHLXGrgQGBuoo-33" value="HMM-GMM" style="rounded=0;whiteSpace=wrap;html=1;" parent="1" vertex="1">
          <mxGeometry x="1150" y="390" width="120" height="60" as="geometry" />
        </mxCell>
        <mxCell id="VElCjOweHLXGrgQGBuoo-35" value="DNN" style="rounded=0;whiteSpace=wrap;html=1;" parent="1" vertex="1">
          <mxGeometry x="1290" y="390" width="120" height="60" as="geometry" />
        </mxCell>
        <mxCell id="VElCjOweHLXGrgQGBuoo-37" value="神经合成" style="rounded=0;whiteSpace=wrap;html=1;" parent="1" vertex="1">
          <mxGeometry x="1500" y="290" width="120" height="60" as="geometry" />
        </mxCell>
        <mxCell id="VElCjOweHLXGrgQGBuoo-41" value="调音合成（顺序待定）" style="rounded=0;whiteSpace=wrap;html=1;" parent="1" vertex="1">
          <mxGeometry x="520" y="490" width="120" height="60" as="geometry" />
        </mxCell>
        <mxCell id="1Eb5hfNcQO4a1IFF3yeM-1" value="" style="endArrow=none;html=1;rounded=0;exitX=0.5;exitY=0;exitDx=0;exitDy=0;entryX=0.5;entryY=1;entryDx=0;entryDy=0;edgeStyle=orthogonalEdgeStyle;" edge="1" parent="1" source="VElCjOweHLXGrgQGBuoo-2" target="VElCjOweHLXGrgQGBuoo-1">
          <mxGeometry width="50" height="50" relative="1" as="geometry">
            <mxPoint x="120" y="400" as="sourcePoint" />
            <mxPoint x="170" y="350" as="targetPoint" />
          </mxGeometry>
        </mxCell>
        <mxCell id="1Eb5hfNcQO4a1IFF3yeM-2" value="" style="endArrow=none;html=1;rounded=0;exitX=0.5;exitY=1;exitDx=0;exitDy=0;entryX=0.5;entryY=0;entryDx=0;entryDy=0;edgeStyle=orthogonalEdgeStyle;" edge="1" parent="1" source="VElCjOweHLXGrgQGBuoo-1" target="VElCjOweHLXGrgQGBuoo-6">
          <mxGeometry width="50" height="50" relative="1" as="geometry">
            <mxPoint x="200" y="380" as="sourcePoint" />
            <mxPoint x="270" y="340" as="targetPoint" />
          </mxGeometry>
        </mxCell>
        <mxCell id="1Eb5hfNcQO4a1IFF3yeM-4" value="" style="endArrow=none;html=1;rounded=0;entryX=0.5;entryY=1;entryDx=0;entryDy=0;exitX=0.5;exitY=0;exitDx=0;exitDy=0;" edge="1" parent="1" source="VElCjOweHLXGrgQGBuoo-8" target="VElCjOweHLXGrgQGBuoo-4">
          <mxGeometry width="50" height="50" relative="1" as="geometry">
            <mxPoint x="389" y="410" as="sourcePoint" />
            <mxPoint x="439" y="360" as="targetPoint" />
          </mxGeometry>
        </mxCell>
      </root>
    </mxGraphModel>
  </diagram>
</mxfile>
